<svg version="1.2" xmlns="http://www.w3.org/2000/svg" viewBox="200 220 493 1761" width="900" height="1061">
	<title>Foreground-svg</title>
	<style>
		.s0 { fill: #1c658c } 
		.s1 { fill: #ffffff } 
		.s2 { fill: #1a2e35 } 
		.s3 { fill: #144560 } 
		.s4 { fill: #398ab9 } 
		.s5 { fill: #f94f5a } 
		.s6 { fill: #bd343e } 
		.s7 { fill: #e1e1e1 } 
		.s8 { fill: #bab9b9 } 
		.s9 { fill: #fcbf9c } 
		.s10 { fill: #7c1929 } 
		.s11 { fill: #e6e7e8 } 
		.s12 { fill: #dd9572 } 
		.s13 { fill: #2d4e56 } 
		.s14 { fill: #385a65 } 
	</style>
	<path id="Layer" class="s0" d="m435.8 1716.9h-400.1v-243h400.1z"/>
	<path id="Layer" class="s0" d="m155.3 1473.9h257.7l35.6 67.5h-257.3z"/>
	<path id="Layer" class="s1" d="m393 1621h-184v-52h184z"/>
	<path id="Layer" fill-rule="evenodd" class="s2" d="m231.4 1577.3h8.5q4.1 0 6.2 2.2 2.1 2.2 2.1 6.5v18q0 4.3-2.1 6.5-2.1 2.2-6.2 2.2h-8.5zm8.4 30.4q1.4 0 2.1-0.9 0.7-0.8 0.7-2.6v-18.4q0-1.8-0.7-2.6-0.7-0.8-2.1-0.8h-2.8v25.3z"/>
	<path id="Layer" fill-rule="evenodd" class="s2" d="m258.8 1610.9q-2.2-2.3-2.2-6.6v-18.6q0-4.3 2.2-6.6 2.1-2.3 6.2-2.3 4.1 0 6.3 2.3 2.2 2.3 2.2 6.6v18.6q0 4.3-2.2 6.6-2.2 2.3-6.3 2.3-4.1 0-6.2-2.3zm9.1-6.2v-19.4q0-3.5-2.9-3.5-2.9 0-2.9 3.5v19.4q0 3.5 2.9 3.5 2.9 0 2.9-3.5z"/>
	<path id="Layer" class="s2" d="m282.3 1577.3h7l5.4 21.2h0.1v-21.2h4.9v35.4h-5.7l-6.7-25.8h-0.1v25.8h-4.9z"/>
	<path id="Layer" fill-rule="evenodd" class="s2" d="m313.2 1577.3h7.6l5.7 35.4h-5.5l-1-7v0.1h-6.4l-1 6.9h-5.1zm6 23.7l-2.4-17.5h-0.1l-2.5 17.5z"/>
	<path id="Layer" class="s2" d="m336.3 1582.4h-5.8v-5.1h17.2v5.1h-5.8v30.3h-5.6z"/>
	<path id="Layer" class="s2" d="m355.4 1577.3h15.2v5.1h-9.6v9.3h7.6v5.1h-7.6v10.8h9.6v5.1h-15.2z"/>
	<path id="Layer" class="s3" d="m155.8 1716.9h-120.1v-243h120.1z"/>
	<path id="Layer" class="s4" d="m119.8 1541.4h-119.7l35.6-67.5h120.1z"/>
	<path id="Layer" class="s5" d="m1057.1 1425.9h400v291h-400z"/>
	<path id="Layer" class="s6" d="m1337.1 1425.9h120v291h-120z"/>
	<path id="Layer" class="s1" d="m1316.2 1592.5l-214.8 65.5-18.5-60.7 214.8-65.5z"/>
	<path id="Layer" fill-rule="evenodd" class="s2" d="m1112 1599l9.9-3q4.8-1.5 8.1 0.4 3.2 1.8 4.7 6.9l6.4 20.9q1.5 5-0.1 8.3-1.7 3.4-6.5 4.8l-9.9 3.1zm20.6 32.4q1.6-0.5 2.2-1.7 0.5-1.2-0.1-3.3l-6.6-21.5q-0.6-2.1-1.8-2.8-1.1-0.7-2.7-0.2l-3.3 1 9 29.5z"/>
	<path id="Layer" fill-rule="evenodd" class="s2" d="m1155.9 1628.5q-3.4-1.9-4.9-6.9l-6.6-21.7q-1.5-5 0.2-8.5 1.7-3.5 6.5-5 4.8-1.4 8.1 0.5 3.4 2 4.9 6.9l6.6 21.8q1.6 4.9-0.2 8.4-1.7 3.5-6.5 5-4.7 1.4-8.1-0.5zm8.5-10.5l-6.9-22.6q-1.3-4.1-4.6-3-3.4 1-2.1 5.1l6.8 22.5q1.3 4.1 4.6 3.1 3.4-1.1 2.2-5.1z"/>
	<path id="Layer" class="s2" d="m1171.4 1580.9l8.2-2.5 13.8 22.8h0.1l-7.5-24.8 5.8-1.7 12.6 41.3-6.7 2.1-17-27.8h-0.1l9.2 30.2-5.8 1.7z"/>
	<path id="Layer" fill-rule="evenodd" class="s2" d="m1207.6 1569.9l8.8-2.7 19.3 39.3-6.5 2-3.7-7.9v0.1l-7.3 2.3 1.3 8.4-6.1 1.9zm15.5 25.5l-9.1-19.6h-0.1l3.4 21.3z"/>
	<path id="Layer" class="s2" d="m1236.3 1567.6l-6.8 2-1.8-5.9 20.1-6.1 1.8 5.9-6.8 2.1 10.8 35.4-6.5 2z"/>
	<path id="Layer" class="s2" d="m1256.8 1554.9l17.7-5.4 1.8 5.9-11.2 3.4 3.4 10.9 8.9-2.7 1.8 5.9-8.9 2.7 3.8 12.7 11.2-3.4 1.8 5.9-17.7 5.4z"/>
	<path id="Layer" class="s5" d="m1337.1 1425.9h120l35.6 67.5h-119.6z"/>
	<path id="Layer" class="s6" d="m1301.1 1493.4h-277.6l35.6-67.5h278z"/>
	<rect id="Layer" class="s2" x="421.2" y="441.3" width="687.6" height="1291.7" rx="55.2"></rect>
	<rect id="Layer" class="s1" x="465.4" y="485.5" width="599.3" height="1203.4" rx="11"></rect>
	<path id="Layer" class="s2" d="m893 487.7c0 14.6-11.8 26.5-26.5 26.5h-203c-14.7 0-26.5-11.9-26.5-26.5 0-14.6 11.8-26.5 26.5-26.5h203c14.7 0 26.5 11.9 26.5 26.5z"/>
	<path id="Layer" class="s2" d="m948.8 917.9c0 12.8-10.4 23.2-23.2 23.2h-321.2c-12.8 0-23.2-10.4-23.2-23.2 0-12.8 10.4-23.2 23.2-23.2h321.2c12.8 0 23.2 10.4 23.2 23.2z"/>
	<path id="Layer" fill-rule="evenodd" class="s0" d="m587.3 992.8h23.9q11.6 0 17.4 6.3 5.8 6.2 5.8 18.3v50.3q0 12-5.8 18.3-5.8 6.2-17.4 6.2h-23.9zm23.6 85.3q3.8 0 5.9-2.3 2-2.3 2-7.4v-51.7q0-5.1-2-7.4-2.1-2.2-5.9-2.2h-8v71z"/>
	<path id="Layer" fill-rule="evenodd" class="s0" d="m657 1087.1q-6.1-6.5-6.1-18.4v-52.3q0-11.9 6.1-18.5 6.1-6.5 17.7-6.5 11.5 0 17.6 6.5 6.1 6.6 6.1 18.5v52.3q0 11.9-6.1 18.4-6.1 6.6-17.6 6.6-11.6 0-17.7-6.6zm25.7-17.4v-54.3q0-9.8-8-9.8-8.1 0-8.1 9.8v54.3q0 9.8 8.1 9.8 8 0 8-9.8z"/>
	<path id="Layer" class="s0" d="m716 992.8h19.6l15.2 59.5h0.3v-59.5h13.9v99.4h-16.1l-18.7-72.5h-0.3v72.5h-13.9z"/>
	<path id="Layer" fill-rule="evenodd" class="s0" d="m795.8 992.8h21.2l16.2 99.4h-15.6l-2.9-19.7v0.3h-17.7l-2.9 19.4h-14.5zm17.1 66.5l-7-49.1h-0.3l-6.8 49.1z"/>
	<path id="Layer" class="s0" d="m853.5 1007h-16.3v-14.2h48.3v14.2h-16.4v85.2h-15.6z"/>
	<path id="Layer" class="s0" d="m900.1 992.8h42.6v14.2h-27v26.3h21.5v14.2h-21.5v30.5h27v14.2h-42.6z"/>
	<circle id="Layer" class="s7" cx="579.6" cy="1592.8" r="53"/>
	<path id="Layer" class="s8" d="m603.1 1576.1h-47v-9.8h47z"/>
	<path id="Layer" class="s8" d="m603.1 1597.7h-47v-9.7h47z"/>
	<path id="Layer" class="s8" d="m603.1 1619.3h-47v-9.7h47z"/>
	<circle id="Layer" class="s7" cx="765" cy="1592.8" r="53"/>
	<path id="Layer" class="s8" d="m789.7 1587.8v33.1h-49.4v-33.1h-11.8l36.5-28.3 36.5 28.3z"/>
	<circle id="Layer" class="s7" cx="950.4" cy="1592.8" r="53"/>
	<path id="Layer" class="s8" d="m959.7 1615.3h-26.5v-10.5h26.5c9.3 0 16.8-7.6 16.8-16.8 0-9.3-7.5-16.8-16.8-16.8h-26.5v-10.6h26.5c15.1 0 27.4 12.3 27.4 27.4 0 15.1-12.3 27.3-27.4 27.3z"/>
	<path id="Layer" class="s8" d="m942.1 1626.8l-23.1-16.7 23.1-16.8z"/>
	<path id="Layer" class="s4" d="m607.7 872.3c-51.3-63.2-11.1-131.4 38.4-150.7 43.5-16.9 85.9 9.5 107.8 40.2-3.3-37.6 19.3-85.6 55.8-100.6 59.1-24.4 116.6 9 127.2 89.5 7.9 59.6-35.3 141.6-69.6 190.4h-157.3c-40.1-17.6-79.6-40.8-102.3-68.8z"/>
	<path id="Layer" class="s0" d="m825.7 941.1h-115.7c-40.1-17.6-79.6-40.8-102.3-68.8-51.3-63.2-11.1-131.4 38.4-150.7 43.5-16.9 85.9 9.5 107.8 40.2z"/>
	<path id="Layer" class="s7" d="m986.9 1185.3h-443.8v-24.8h443.8z"/>
	<path id="Layer" class="s7" d="m986.9 1240.5h-443.8v-24.9h443.8z"/>
	<path id="Layer" class="s7" d="m986.9 1295.7h-443.8v-24.9h443.8z"/>
	<path id="Layer" class="s7" d="m986.9 1350.8h-443.8v-24.8h443.8z"/>
	<path id="Layer" class="s7" d="m837.6 1406h-294.5v-24.8h294.5z"/>
	<path id="Layer" class="s1" d="m870.9 688q17.7-1.2 23.6 16.5-9.4 27.2-25.9 26c-16.6-1.2-18.9-20.1 2.3-42.5z"/>
	<path id="Layer" class="s9" d="m354.7 1725.1q-1-7.5 1.9-18.8l-3.4-48.1 25.5 1.4-2.3 48.1q-1.2 12.9 1.3 22.4 2.5 9.5 11 17-11.5 7-20 5-13-19.5-14-27z"/>
	<path id="Layer" class="s2" d="m355.9 1717.8c-0.9 2.8 7.4 28.8 12.1 31.6q4.6 2.7 17.6-5.6 24.2 14.8 21.4 16.7c-2.8 1.9-49.2-1.9-49.2-4.6 0-2.8-1.9-27-5.6-27.9q-3.7-0.9-4.6 29.7h-3.8q-0.9-39.9 1-45.5 1.8-5.6 12-9.3 0 12.1-0.9 14.9z"/>
	<path id="Layer" class="s9" d="m201.5 1725.1q-1-7.5 2-18.8l-1.4-48.1 25.4 1.4-4.2 48.1q-1.3 12.9 1.2 22.4 2.5 9.5 11 17-11.5 7-20 5-13-19.5-14-27z"/>
	<path id="Layer" class="s6" d="m340.5 1180.6q24.3 68.4 26.1 96 1.8 27.7 19 397.1-15.8 11.5-47.1 4.6-6.2-100.4-10.7-134.3-4.5-33.8-35.8-226.2-18 99.6-22.9 139.2-4.9 39.5-32 219.6-15.4 2.3-43.6-4.5 2.8-155.6 3.3-232.1 0.5-76.4 11.7-247.6z"/>
	<path id="Layer" class="s10" d="m289.7 1345.4l-3-0.6c2.5-11.9 3.9-23.3 5.2-34.4 1.2-10.3 2.3-19.9 4.3-29.7l2.9 0.6c-1.9 9.7-3 19.3-4.2 29.4-1.4 11.2-2.7 22.7-5.2 34.7z"/>
	<path id="Layer" class="s10" d="m349.3 1680.3l-0.6-5.7c-15.9-160.5-27.2-258.9-31.8-277.3-1.7-6.8-4-22.1-6.7-39.7-4.7-30.6-10.6-68.6-15.8-79.7l2.7-1.3c5.4 11.6 11.3 49.8 16 80.5 2.7 17.6 5.1 32.8 6.7 39.5 4.7 18.5 16 117.1 31.9 277.7l0.6 5.7z"/>
	<path id="Layer" class="s10" d="m205 1676.6l-3-0.1 0.3-6.6c1-19 2.1-40.6 3.9-60.2 1.9-19.2 2.9-41.6 3.8-63.3 0.9-18.8 1.8-38.3 3.2-55.3 5.5-66.7 6.6-119.7 6.6-194.1h3c0 74.5-1.1 127.5-6.6 194.4-1.4 16.9-2.3 36.3-3.2 55.1-0.9 21.7-2 44.2-3.8 63.5-1.8 19.5-2.9 41.1-3.9 60.1z"/>
	<path id="Layer" class="s2" d="m214 815.1q20.5-8.4 34-6 70.7-35.3 84.9 82.5c3.1 25.7-10 47.2-0.9 71.7 8.4 22.6 20.7 33 25.1 57.7 4.7 26.1-2.5 43.8-17.6 53.1-10.3 6.3-37.1-3-41.6 10.6-13.5 40.1-96.6 52.1-129.3 51.8-24-0.2-66.7 0.3-69.7-28.3-2.2-20.6 14.6-36.6 19.5-51.7 5.7-17.5-3.5-23.4 2.5-44.2 6-20.6 28.5-28.9 38.9-46.7 27.5-47.3-14.9-122.2 54.2-150.5z"/>
	<path id="Layer" class="s5" d="m338.1 1105.7q0 41.8 26.1 151.6-68 36.6-172.5 0 31.3-88.9 31.3-135.9c0-47.1-52.2-120.3-41.8-136 10.5-15.6 44-17.1 59.5-19.9 24.6-4.6 61.2 3.2 83.4 13.6q0.2 0 0.6 0 19.3 2.7 24.6 12.7 5 9.3 24.7 73.3l-35.1 7.2c-0.5 11.3-0.8 22.7-0.8 33.4z"/>
	<path id="Layer" class="s6" d="m364.7 1068.5h-7.4q-5.3-21.4-25.3-76.7 17.3 26 32.7 76.7z"/>
	<path id="Layer" class="s6" d="m233.3 1088.5q-16.6-74-20-84c-3.3-10-15.3-20-20-20.7q8.7-0.7 16 6.7c7.4 7.3 9.4 12 13.4 27.3q4 15.3 14.6 68.7z"/>
	<path id="Layer" class="s1" d="m253.7 1099.5c1.8-34-15.8-119.4-18.6-133.1 2-0.3 3.9-0.6 5.6-0.9 13.1-2.5 29.7-1.4 45.6 1.8q24.9 42.9 38.4 125.2z"/>
	<path id="Layer" class="s11" d="m241.1 996.7c11.2 8.8 23.7 17.8 37.2 21.2 5.3 1.3 11.5 1.7 15.5-2.7 4.5-5.1 5.5-12.6 5.8-19.3q1.8 4.9 3.5 9.9c-2.6 10.8-8.9 19.9-22.5 17.7-8.5-1.4-16.4-5.6-23.7-10-5-3.1-9.8-6.4-14.6-9.8q-0.6-3.6-1.2-7z"/>
	<path id="Layer" class="s9" d="m276.7 932.5l3.5 36-32.5-2-5-50z"/>
	<path id="Layer" class="s9" d="m239.1 986.5c-1.9-9.6-3.4-16.9-4-20.1 2-0.3 3.9-0.6 5.6-0.9 13.1-2.5 29.7-1.4 45.6 1.8 4.2 7.1 8 15.4 11.5 24.2-2 9.7-5.3 19.1-10.1 21-10.6 4.1-32.5-12.1-48.6-26z"/>
	<path id="Layer" class="s12" d="m278.4 950.9c-7.1 0.9-22.7 0.2-33.4-10.8l-1-10 33.3 8.7z"/>
	<path id="Layer" class="s9" d="m242.3 833.8q44.3-27.9 67.8 25.8c23.6 53.6 2.8 92.4-47.2 83.5-50-9-58.3-95.4-20.6-109.3z"/>
	<path id="Layer" class="s9" d="m239.5 926.8c-15.8 16.2-28.6-2.6-25.6-13.1q3-10.5 18.3-3.5z"/>
	<path id="Layer" class="s0" d="m579 1265.7c2.1 12.6-6.5 24.6-19.1 26.6l-364.5 60.1c-12.6 2.1-24.6-6.5-26.7-19.1l-35.2-213.4c-2-12.5 6.6-24.5 19.1-26.6l364.6-60.1c12.5-2.1 24.5 6.5 26.6 19.1z"/>
	<path id="Layer" class="s1" d="m414.6 1274l-205.9 33.9-5.1-30.9 205.9-33.9z"/>
	<path id="Layer" class="s13" d="m244.7 1200.8l-70.3 11.6-2.6-15.8 70.3-11.6z"/>
	<path id="Layer" class="s13" d="m340.8 1184.9l-70.3 11.6-2.6-15.7 70.3-11.6z"/>
	<path id="Layer" class="s13" d="m438.6 1168.8l-70.3 11.6-2.5-15.8 70.2-11.5z"/>
	<path id="Layer" class="s13" d="m534.7 1153l-70.3 11.6-2.6-15.8 70.3-11.6z"/>
	<path id="Layer" class="s2" d="m554.7 1118.7l-410.2 67.6-8.2-49.8 410.2-67.6z"/>
	<path id="Layer" class="s1" d="m498.5 1214.3c2.6-1.6 5.6-2.7 8.8-3.2 13.7-2.3 26.7 7 28.9 20.8 2.3 13.7-7 26.7-20.7 29-3.2 0.5-6.4 0.4-9.4-0.2 4.1-7.2 5.9-15.8 4.4-24.6-1.4-8.8-5.8-16.3-12-21.8z"/>
	<path id="Layer" class="s1" d="m448.7 1246.3c-2.2-13.7 7.1-26.7 20.8-29 13.8-2.2 26.7 7.1 29 20.8 2.3 13.8-7 26.7-20.8 29-13.7 2.3-26.7-7-29-20.8z"/>
	<path id="Layer" class="s9" d="m318 1195.1q-3.1-4.2-17.3-10.6 3.3-14.7 8-15.4 12.6 9.4 16 12c3.3 2.7 15-2.7 19.6-0.3 7.7 4 12.7 5.3 10.7 7.3q-2 2-9 1 7.1 6.5 15.3 12.4 5.6 2.7 6.1 3.7c0.5 1-2.2 3.3-6 2.3q-2 2.5-5.2 2.5-3.8 2.2-6.5 1.2-2.8-1-6.8-0.7-2.2 2-6.2 0.2c-4-1.7-11.8-6-18.7-15.6z"/>
	<path id="Layer" class="s5" d="m212.3 1157.6q-10.5-21-21-55.5c-10.5-34.5-20.6-90.6-16.6-107.6 2.4-10.3 14.8-13.1 23.2-8.6 17.6 9.3 19 41.1 24.1 58 6.2 21.1 11.3 42.6 16.5 63.9 0.5 2 1.8 14.1 3.8 15.3 0 0 68.4 38.1 77.7 49q-9 11.9-12 22.4z"/>
	<path id="Layer" class="s1" d="m289 928.3q-11 5.5-20.3-9.6l27.2-10.4q4.2 14.5-6.9 20z"/>
	<path id="Layer" class="s2" d="m241.3 829.7c9.8-10.5 35.1-10.4 47.7-6.8 9.7 2.8 16 15 21.4 22.8 7 10.3 13.1 21.3 10.4 34.3-9.5-8.5-19.5-16.7-32.1-20.1-15.5-4.1-40.4-7.1-47.4-24.2z"/>
	<path id="Layer" class="s2" d="m274.1 879.5c3.7 4.7 18.6 19.4 8.9 24.7-1.4 0.7-2.7-1.4-1.3-2.2 6.8-3.7-7.1-17.8-9.7-21.3-1-1.2 1.2-2.5 2.1-1.2z"/>
	<circle id="Layer" class="s1" cx="230.5" cy="932.9" r="5.9"/>
	<path id="Layer" class="s2" d="m250.1 829.8c0.1 3.9 0.8 7.5-3.1 10.6-16.8 13-19.2 32.7-19.9 45.5-0.4 7.7 2.8 25.7-6.2 29-7.7 2.8-19.6-2.3-20.5-8.7-2.2-15.6 9.2-38.8 17.4-52.4 3.7-6.2 9-13.5 14.5-18.1 4.3-3.6 11.4-3.5 14.7-7.1z"/>
	<path id="Layer" class="s5" d="m256 902.9c0.6 2.8-2.4 5.8-6.7 6.7-4.2 1-8.2-0.5-8.8-3.3-0.6-2.7 2.4-5.7 6.6-6.7 4.3-0.9 8.3 0.6 8.9 3.3z"/>
	<path id="Layer" class="s5" d="m323 881.5c0.6 2.8-2.4 5.8-6.6 6.7-4.3 0.9-8.2-0.5-8.9-3.3-0.6-2.8 2.4-5.8 6.7-6.7 4.2-0.9 8.2 0.5 8.8 3.3z"/>
	<path id="Layer" class="s2" d="m249.8 877c-3.3 1.1-6.6 2.4-9.4 4.6-1.2 1-3-0.8-1.7-1.8 3.1-2.4 6.7-4 10.4-5.2 1.6-0.6 2.2 1.9 0.7 2.4z"/>
	<path id="Layer" class="s2" d="m255 890.1c0.5 3.4-1.1 6.4-3.5 6.7-2.4 0.3-4.7-2.2-5.1-5.6-0.4-3.4 1.2-6.4 3.5-6.7 2.4-0.3 4.7 2.2 5.1 5.6z"/>
	<path id="Layer" class="s2" d="m294.5 861.4c-3.4 1.2-6.6 2.5-9.4 4.7-1.2 1-3-0.8-1.7-1.8 3.1-2.4 6.6-4 10.4-5.3 1.6-0.5 2.2 1.9 0.7 2.4z"/>
	<path id="Layer" class="s2" d="m299.7 874.6c0.5 3.4-1.1 6.4-3.5 6.7-2.4 0.3-4.7-2.2-5.1-5.6-0.4-3.4 1.1-6.4 3.5-6.7 2.4-0.3 4.7 2.2 5.1 5.6z"/>
	<path id="Layer" class="s10" d="m233.4 1668.3c-9.3 0-31.4-2.5-39-5l0.9-2.8c8.1 2.5 35.8 5.5 40.8 4.6l0.5 3c-0.7 0.1-1.8 0.2-3.2 0.2z"/>
	<path id="Layer" class="s10" d="m335.7 1671.3v-3c10.2 0 17.8-1.2 25.1-2.3l2.1-0.3c3.2-0.5 6.5-1.1 9.6-1.7 4.5-0.9 9.2-1.8 13.9-2.3l0.4 3c-4.7 0.5-9.3 1.4-13.7 2.2-3.2 0.6-6.5 1.2-9.7 1.7l-2.2 0.4c-7.4 1.1-15.1 2.3-25.5 2.3z"/>
	<path id="Layer" class="s2" d="m202.7 1717.8c-0.9 2.8 7.5 28.8 12.1 31.6q4.7 2.7 17.7-5.6 24.1 14.8 21.3 16.7c-2.7 1.9-49.2-1.9-49.2-4.6 0-2.8-1.9-27-5.6-27.9q-3.7-0.9-4.6 29.7h-3.7q-1-39.9 0.9-45.5 1.9-5.6 12.1-9.3 0 12.1-1 14.9z"/>
	<path id="Layer" class="s9" d="m1380.5 1687l4 48q-26.2 1.2-44.6-21.4l4.6-28.6z"/>
	<path id="Layer" class="s14" d="m1383.9 1725q3.2 24.5 1.6 35.9l-118.5 0.1q-6.1-16.4 11.8-22.9c17.9-6.6 52.9-16.3 61.1-24.5q21.2 18 44 11.4z"/>
	<path id="Layer" class="s2" d="m1386 1753.5c-0.1 2.8-0.2 5.3-0.5 7.4l-118.5 0.1q-0.9-2.4-1-5.6c12.1-0.5 57.5-2.3 73.5-1.9 15.6 0.4 39.4 0.1 46.5 0z"/>
	<path id="Layer" class="s2" d="m1384.9 1734.1c-17.5 5.9-40.7-2-53.3-15.2q2.6-1.3 4.6-2.5c11.8 11.3 32.9 18.7 48.2 12.6 0.1 1.4 0.3 3.1 0.5 5.1z"/>
	<path id="Layer" class="s9" d="m1229 1687l4 48q-26.2 1.2-44.6-21.4l4.6-28.6z"/>
	<path id="Layer" class="s14" d="m1232.4 1725q3.2 24.5 1.6 35.9l-118.5 0.1q-6.1-16.4 11.8-22.9c17.9-6.6 52.9-16.3 61.1-24.5q21.2 18 44 11.4z"/>
	<path id="Layer" class="s2" d="m1234.5 1753.5c-0.1 2.8-0.2 5.3-0.5 7.4l-118.5 0.1q-0.9-2.4-1-5.6c12.1-0.5 57.5-2.3 73.5-1.9 15.6 0.4 39.4 0.1 46.5 0z"/>
	<path id="Layer" class="s2" d="m1233.4 1734.1c-17.5 5.9-40.7-2-53.3-15.2q2.6-1.3 4.6-2.5c11.8 11.3 32.9 18.7 48.2 12.6 0.1 1.4 0.3 3.1 0.5 5.1z"/>
	<path id="Layer" class="s2" d="m1361.9 1173.6q4.8 202.8 7.3 265 2.5 62.1 15.4 247-15 12.4-49.8 7.4-41.8-283.1-49.2-310.4-7.5-27.4-19.5-82.5-12.3 186.2-14.8 216-2.5 29.9-19.2 180.9-30.6 4.9-45.5 0 6.1-335.5 8.6-397.6 2.5-62.2 15.7-136.4z"/>
	<path id="Layer" class="s1" d="m1317.7 913.3c-3.7 38.3-19.4 219.1-10.4 293.8l-99.3-0.1c-5.4-47.7 2.2-204.2 0.7-285.7l31.9-12.1 50.6-5.8q12.3 4.5 26.5 9.9z"/>
	<path id="Layer" class="s11" d="m1317.3 917.5q-0.3 3.1-0.6 6.8c-15.3 11.1-34.2 17.5-52.6 20.1-18.7 2.6-38.8 1-55.3-8.3q0-2.9 0-5.8c16.8 10.8 38.8 12 58 8.6 17.9-3.1 36.2-9.8 50.5-21.4z"/>
	<path id="Layer" class="s14" d="m1215.1 1267.1l-30-4.5q-2.5-287.3-3.9-301.7-1.4-14.4-2.9-27.4l31-12.3c2.9 78.3 0 287.4 5.8 345.9z"/>
	<path id="Layer" class="s14" d="m1360 1047q-2.9 18.7 14.1 200.6l-70.5 9c-19.6-111.6 3.4-305.6 12.2-344 17.2 6.6 37.8 14.8 42.6 18 8.6 5.8 4.5 97.7 1.6 116.4z"/>
	<path id="Layer" class="s9" d="m1259 929q-24-0.7-41.6-11l22.6-9 3.1-28.8 38-9.1 9.6 32.1q10 3.7 22.4 8.4-19.1 18.4-54.1 17.4z"/>
	<path id="Layer" class="s2" d="m1199.7 807.6c17.9 16.3 12.3 45.7 7.6 65.1-12.4-4.3-20.9-13.7-22.6-24.8-2-12.3-2.5-37 8.2-43.8z"/>
	<path id="Layer" class="s9" d="m1254.6 925.5c-46.1 21.4-70.2-42.5-61.2-100.4q9-57.9 58.9-42.3c40.1 3.7 48.3 121.2 2.3 142.7z"/>
	<path id="Layer" class="s9" d="m1280.6 852.6q11.8-21.6 20.3-6.3c8.5 15.4-5.4 32.8-22.7 29.4z"/>
	<path id="Layer" class="s2" d="m1225.1 840.5c-2 5.3-3 10.9-3.8 16.6-0.4 3.2-0.8 6.4-1.3 9.6-0.4 2.6 1.9 2.7 3.9 3.8 1.4 0.8 0.1 3-1.3 2.2-1.6-0.9-3.3-1.4-4.9-2.3-0.5-0.3-0.7-0.8-0.6-1.4 1.6-9.7 2.1-19.8 5.6-29.2 0.6-1.4 3-0.8 2.4 0.7z"/>
	<path id="Layer" class="s2" d="m1196.2 888.5q7.9-5.4 14.4-7.1c6.5-1.7 20.7-5.6 34.2-5.7 13.4-0.1 21.6-4.1 25.7-8.1q4.1-4.1 3-14.7l6.7 3.7q4.3 18.9 3.2 28.5c-1.2 9.6-12.5 32.3-18.8 39.4-6.3 7.1-26.7 6.9-38.3 5.4q-18.6-2.4-30.1-41.4z"/>
	<path id="Layer" class="s9" d="m1214.3 892.1q15.3-6.6 24.1-8 8.7-1.4 15.1-2.7 6.5 18.7-13.1 25.1-19.6 6.3-26.1-14.4z"/>
	<path id="Layer" class="s5" d="m1268.2 852c0.3 2.8-3.1 5.4-7.4 5.7-4.4 0.4-8.1-1.6-8.3-4.4-0.3-2.8 3.1-5.4 7.4-5.8 4.4-0.3 8.1 1.7 8.3 4.5z"/>
	<path id="Layer" class="s5" d="m1204.9 861c0.2 2.8-3.1 5.4-7.5 5.8-4.4 0.3-8.1-1.7-8.3-4.5-0.2-2.8 3.1-5.4 7.5-5.7 4.3-0.4 8 1.6 8.3 4.4z"/>
	<ellipse id="Layer" class="s2" cx="1206.5" cy="845" rx="4.4" ry="6.2"/>
	<ellipse id="Layer" class="s2" cx="1248.4" cy="841" rx="4.4" ry="6.2"/>
	<path id="Layer" class="s2" d="m1240.6 826.1q16.9-4.1 20.5-2.6 3.6 1.4 2.8 4.9l-23.7 1.8z"/>
	<path id="Layer" class="s2" d="m1195 833.6q14.8-3.4 16.9-2.9l0.1 2.4q-16.7 4.8-17.7 4.6-1-0.3 0.7-4.1z"/>
	<path id="Layer" class="s2" d="m1273.2 863.8c1.8-14.5-2.5-37.1-4.9-48.6-3.1-14.2-13.5-11.6-25.9-10.2-16.2 1.9-33.5 5.9-49.7 6.1-6.2 0.1-17.5-1.6-22.4-6.1-3.2-2.9-5.3-10.8 1.6-9.1 0.3-7-12.8-9.6-8.2-18.1 4.6-8.2 14.8-1.3 20.9 0.1 0-6.6-7.4-13.8 2.3-15.2 6-0.9 10.8 4.2 16.5 5.6 6.2 1.5 13.1 0.6 19.4 0.2 10.5-0.7 21.8-1.2 32.5-0.3 11.7 1 17.2 1.5 18.6 13.7 7.1-1.5 14.5 8 17.4 13.7 5.3 10 4.7 20.2 4.3 31.3-0.7 17.1-3.8 36.2-15.8 48.6z"/>
	<path id="Layer" class="s2" d="m1225.9 891.9c5.5 1.6 10.7 0.5 14.3-4.1 1-1.3 2.7 0.5 1.8 1.7-4.1 5.3-10.5 6.6-16.7 4.8-1.6-0.4-0.9-2.8 0.6-2.4z"/>
	<path id="Layer" class="s0" d="m1179 910.7c13.1 5.5 50.9 32.5 56.9 54.3 13.2 48.4-12.9 110.3-36.1 152.4-34.3 61.9-90 121.1-156.4 148.3-14.8 6-37.3 10-50.8 4q-28.4-12.8-41.9-49.7 23.7-62.1 41.9-91.6c16.2-26.3 69.8-111.5 122.6-163.4 27.6-27 36.3-65.6 63.8-54.3z"/>
	<path id="Layer" class="s4" d="m1208.1 949.8c13.3 48.5-9.1 103.5-32.3 145.6-34.3 61.9-90 121.1-156.4 148.3-89.4 36.5-80.1-72.4-50.8-137.3 14.6-32.4 69-107 121.9-158.9 40.6-39.9 99.2-65.1 117.6 2.3z"/>
	<path id="Layer" fill-rule="evenodd" class="s0" d="m995.5 1228.7c-13.8 0-24.2-5.7-30.2-16.4-8.5-15.2-6.4-36.9-3.1-52.4 4.1-19.2 12.2-39.6 22.2-55.9 18.5-30 63.4-96.4 101.1-133.5 16.6-16.2 48.2-43.5 74-43.5 19.5 0 28 15.7 31.6 28.9 11.1 40.6-17.2 107.8-33.7 137.6-15.5 28.1-35.7 55.5-56.9 77.1-27.4 28-55.8 46.5-84.6 54.8q-11.3 3.3-20.4 3.3zm164-293.7c-23.8 0-55.7 28.8-68.4 41.2-37.2 36.5-81.6 102.3-99.9 132-19 30.7-31.1 78.4-18.9 100.2 4.6 8.3 12.2 12.3 23.2 12.3 5.3 0 11.4-1 18.2-3 27.4-7.9 54.7-25.7 81.1-52.7 20.7-21.1 40.4-47.9 55.6-75.3 33.9-61.2 38.3-112.3 33-131.6-4.3-15.6-12.1-23.1-23.9-23.1z"/>
	<path id="Layer" class="s4" d="m1090.7 1240q-7.4 5-15 9.5l-17.5-30.7 10.3-13.3z"/>
	<path id="Layer" class="s4" d="m1017.9 1272.2c-3.3 0.3-6.7 0.5-9.9 0.5l-15.8-27.7 5-5z"/>
	<path id="Layer" class="s4" d="m1128.4 1209.6q-6.6 6.1-13.4 11.9l-24.8-25.5 6.7-15.4z"/>
	<path id="Layer" class="s4" d="m1052.6 1261.6q-4.6 2.2-9.2 4.1-1.8 0.7-3.7 1.4l-16.5-29.1 9.3-7.5z"/>
	<path id="Layer" class="s4" d="m1205.5 1106.8q-2.9 5.5-5.7 10.6-0.8 1.4-1.6 2.7l-22.7-22.4-0.6-19.1z"/>
	<path id="Layer" class="s4" d="m1184 1143.4q-5 7.5-10.3 14.8l-25.5-26.2 6.7-15.4z"/>
	<path id="Layer" class="s4" d="m1238.8 1006.8l-31.6-24.8-4-14 36.3 24.5q0 7-0.7 14.3z"/>
	<path id="Layer" class="s4" d="m1235.1 1029.9q-1.8 8-4.3 16l-30.6-21.9-2-19z"/>
	<path id="Layer" class="s4" d="m1149 1188.5l-22.8-23.5 6.7-15.4 27.7 25.5q-5.6 6.8-11.6 13.4z"/>
	<path id="Layer" class="s4" d="m1200.2 940l35.3 23.8q0.2 0.6 0.4 1.2 1.6 5.7 2.4 11.7l-34.1-22.7z"/>
	<path id="Layer" class="s4" d="m1223.1 1068.2q-2.3 5.9-4.8 11.7l-27.8-23.2-0.6-19.1z"/>
	<path id="Layer" class="s1" d="m1022.9 1129.1q-4.7-13.3-1.1-26.7 3.5-13.5 14.3-25.4l7.5-8.1 11.8 19.9-8.6 9.4q-9.9 10.8-3.4 21.7 6.4 10.9 16.6-0.3 6.4-6.9 9.2-16.3 2.9-9.4 3.5-27.2 1.1-22.2 5.5-35.5 4.4-13.4 13.8-23.6 10.5-11.6 20.7-13.4 10.1-1.8 18.7 6.8l9.9-10.8 10.2 17.3-9.9 10.8q4.6 13.2 1.1 26.5-3.5 13.3-14.3 25.1l-3.3 3.6-11.8-19.9 4.4-4.8q10.1-11 3.8-21.5-6.2-10.6-15.9 0.1-5.9 6.4-8.6 15.6-2.6 9.2-3.5 27.2-1.2 22.4-5.6 35.8-4.5 13.4-14.3 24.1-11 12-21.5 13.9-10.5 1.9-19-7.1l-11.4 12.4-10.2-17.2z"/>
	<path id="Layer" class="s2" d="m1296.5 1130l63.8-55.2c0.4 7.4 0.9 15.8 1.5 24.9q-7.1 24-19.8 60.6-33.6-5-46.3-6.1c0.3-9.4 0.5-14.3 0.8-24.2z"/>
	<path id="Layer" class="s2" d="m1352.7 951l-55.2 142q8.2-46.3 12-61.5c3.2-12.8 9.1-38.9 15.5-50.5q10.3-18.7 27.7-30z"/>
	<path id="Layer" class="s9" d="m1193.7 1117c-16-0.1-50-3.8-52.7-7.7-2.7-3.9-2.1-17-1.9-21.3 0.2-4.4 23.8-5.4 29.2-7.4 5.3-2 17.2 5.1 22.4 7.5q5.2 2.3 14.5 15.4 4.5 13.6-11.5 13.5z"/>
	<path id="Layer" class="s14" d="m1358.4 930.6q32.9 3.7 37.6 42.4 2 16.4-60.9 180.1l-144.1-30.1q1-24 7-36l96.6 12.1q40.2-136.9 63.8-168.5z"/>
	<path id="Layer" class="s14" d="m1341.2 1247c3.5 26.5 4.8 53.4 6.4 80 4.4 73.7 7.6 147.5 11.7 221.2 1.8 31.4 3.6 62.8 6.3 94.1 0.9 10.6 1.8 21.3 3.3 31.8 0.7 5.5 1.3 11.5 3.4 16.6 0.6 1.5-1.8 2.2-2.4 0.7-2.5-6-3-13.1-3.8-19.5-1.6-12.4-2.7-24.9-3.7-37.3-5.6-70.4-8.5-141-12.1-211.6-1.8-35.1-3.6-70.2-5.8-105.4-1.4-23.5-2.7-47.2-5.8-70.6-0.2-1.6 2.3-1.6 2.5 0z"/>
	<path id="Layer" class="s14" d="m1333.5 1679.9c17.2 3.5 34.5 0.1 49-9.9 1.3-0.9 2.6 1.2 1.3 2.1-15.1 10.5-33.2 13.9-51 10.2-1.6-0.4-0.9-2.8 0.7-2.4z"/>
	<path id="Layer" class="s14" d="m1180 1681.7c18.6 2 37.3 2 56 2 1.6 0 1.6 2.5 0 2.5-18.7 0-37.4 0-56-2-1.6-0.1-1.6-2.6 0-2.5z"/>
	<path id="Layer" class="s14" d="m1252.2 1268.7c4.2 14.5 9.6 28.9 17.9 41.7 0.9 1.3-1.3 2.6-2.2 1.2-8.4-12.9-13.8-27.5-18.1-42.3-0.5-1.5 2-2.2 2.4-0.6z"/>
</svg>